# xmcd
#
# Track frame offsets:
#	150
#	17750
#	37972
#	53357
#	75615
#	92237
#	110357
#	130710
#	147577
#	163592
#	187377
#	204975
#	221575
#	222327
#
# Disc length: 3255 seconds
#
# Revision: 7
# Processed by: cddbd v1.5.2PL0 Copyright (c) Steve Scherf et al.
# Submitted via: EasyCDDAExtractor 15.3.0.1
#
DISCID=c50cb50e
DTITLE=DEUX - DEUX FOREVER disk 2
DYEAR=1996
DGENRE=Blues
TTITLE0=떠나버려
TTITLE1=영원의 노래
TTITLE2=굴레를 벗어나
TTITLE3=다투고 난뒤
TTITLE4=상처
TTITLE5=義式魂亂 (의식혼란)
TTITLE6=Message (메세지)
TTITLE7=말하자면
TTITLE8=너의 생일
TTITLE9=HipHop 정신
TTITLE10=사랑, 두려움
TTITLE11=친구에게
TTITLE12=성재를 위한 고요함
TTITLE13=사랑하는 이에게
EXTD=YEAR: 1996
EXTT0=
EXTT1=
EXTT2=
EXTT3=
EXTT4=
EXTT5=
EXTT6=
EXTT7=
EXTT8=
EXTT9=
EXTT10=
EXTT11=
EXTT12=
EXTT13=
PLAYORDER=
